<mxfile host="app.diagrams.net" modified="2021-03-18T11:28:00.875Z" agent="5.0 (Macintosh; Intel Mac OS X 10_15_6) AppleWebKit/605.1.15 (KHTML, like Gecko) Version/14.0.3 Safari/605.1.15" etag="gHwbGJFW5pjBh8Z6e1PK" version="14.4.9" type="github">
  <diagram id="R2lEEEUBdFMjLlhIrx00" name="Page-1">
    <mxGraphModel dx="2878" dy="1051" grid="1" gridSize="10" guides="1" tooltips="1" connect="1" arrows="1" fold="1" page="1" pageScale="1" pageWidth="850" pageHeight="1100" math="0" shadow="0" extFonts="Permanent Marker^https://fonts.googleapis.com/css?family=Permanent+Marker">
      <root>
        <mxCell id="0" />
        <mxCell id="1" parent="0" />
        <mxCell id="xFcL8hNEeigxIOY4OhWo-2" value="Book" style="rounded=1;whiteSpace=wrap;html=1;" parent="1" vertex="1">
          <mxGeometry x="-930" y="210" width="120" height="60" as="geometry" />
        </mxCell>
        <mxCell id="xFcL8hNEeigxIOY4OhWo-3" value="book copy" style="rounded=1;whiteSpace=wrap;html=1;" parent="1" vertex="1">
          <mxGeometry x="-740" y="210" width="120" height="60" as="geometry" />
        </mxCell>
        <mxCell id="xFcL8hNEeigxIOY4OhWo-4" value="loan" style="rounded=1;whiteSpace=wrap;html=1;" parent="1" vertex="1">
          <mxGeometry x="-740" y="350" width="120" height="60" as="geometry" />
        </mxCell>
        <mxCell id="xFcL8hNEeigxIOY4OhWo-5" value="" style="edgeStyle=entityRelationEdgeStyle;fontSize=12;html=1;endArrow=ERmany;exitX=1;exitY=0.5;exitDx=0;exitDy=0;" parent="1" source="xFcL8hNEeigxIOY4OhWo-2" edge="1">
          <mxGeometry width="100" height="100" relative="1" as="geometry">
            <mxPoint x="-840" y="340" as="sourcePoint" />
            <mxPoint x="-740" y="240" as="targetPoint" />
          </mxGeometry>
        </mxCell>
        <mxCell id="xFcL8hNEeigxIOY4OhWo-7" value="" style="fontSize=12;html=1;endArrow=ERmany;" parent="1" edge="1">
          <mxGeometry width="100" height="100" relative="1" as="geometry">
            <mxPoint x="-680" y="274" as="sourcePoint" />
            <mxPoint x="-680" y="350" as="targetPoint" />
          </mxGeometry>
        </mxCell>
        <mxCell id="xFcL8hNEeigxIOY4OhWo-9" value="Student" style="rounded=1;whiteSpace=wrap;html=1;" parent="1" vertex="1">
          <mxGeometry x="-555" y="350" width="120" height="60" as="geometry" />
        </mxCell>
        <mxCell id="xFcL8hNEeigxIOY4OhWo-10" value="" style="fontSize=12;html=1;endArrow=ERmany;entryX=1;entryY=0.5;entryDx=0;entryDy=0;exitX=0;exitY=0.5;exitDx=0;exitDy=0;" parent="1" source="xFcL8hNEeigxIOY4OhWo-9" target="xFcL8hNEeigxIOY4OhWo-4" edge="1">
          <mxGeometry width="100" height="100" relative="1" as="geometry">
            <mxPoint x="-560" y="480" as="sourcePoint" />
            <mxPoint x="-560" y="380" as="targetPoint" />
            <Array as="points" />
          </mxGeometry>
        </mxCell>
        <mxCell id="xFcL8hNEeigxIOY4OhWo-12" value="Reservations&amp;nbsp;" style="rounded=1;whiteSpace=wrap;html=1;" parent="1" vertex="1">
          <mxGeometry x="-555" y="210" width="120" height="60" as="geometry" />
        </mxCell>
        <mxCell id="xFcL8hNEeigxIOY4OhWo-13" value="" style="fontSize=12;html=1;endArrow=ERmany;entryX=0.5;entryY=1;entryDx=0;entryDy=0;exitX=0.5;exitY=0;exitDx=0;exitDy=0;" parent="1" source="xFcL8hNEeigxIOY4OhWo-9" target="xFcL8hNEeigxIOY4OhWo-12" edge="1">
          <mxGeometry width="100" height="100" relative="1" as="geometry">
            <mxPoint x="-490" y="345" as="sourcePoint" />
            <mxPoint x="-520" y="300" as="targetPoint" />
            <Array as="points" />
          </mxGeometry>
        </mxCell>
        <mxCell id="xFcL8hNEeigxIOY4OhWo-14" value="" style="fontSize=12;html=1;endArrow=ERmany;entryX=1;entryY=0.5;entryDx=0;entryDy=0;exitX=0;exitY=0.5;exitDx=0;exitDy=0;" parent="1" edge="1">
          <mxGeometry width="100" height="100" relative="1" as="geometry">
            <mxPoint x="-555" y="239.5" as="sourcePoint" />
            <mxPoint x="-620" y="239.5" as="targetPoint" />
            <Array as="points" />
          </mxGeometry>
        </mxCell>
        <mxCell id="xFcL8hNEeigxIOY4OhWo-15" value="Professor" style="rounded=1;whiteSpace=wrap;html=1;" parent="1" vertex="1">
          <mxGeometry x="-930" y="90" width="120" height="60" as="geometry" />
        </mxCell>
        <mxCell id="xFcL8hNEeigxIOY4OhWo-16" value="reading &amp;nbsp;list" style="rounded=1;whiteSpace=wrap;html=1;" parent="1" vertex="1">
          <mxGeometry x="-740" y="90" width="120" height="60" as="geometry" />
        </mxCell>
        <mxCell id="xFcL8hNEeigxIOY4OhWo-17" value="" style="edgeStyle=entityRelationEdgeStyle;fontSize=12;html=1;endArrow=ERmany;exitX=1;exitY=0.5;exitDx=0;exitDy=0;" parent="1" edge="1">
          <mxGeometry width="100" height="100" relative="1" as="geometry">
            <mxPoint x="-810" y="119.5" as="sourcePoint" />
            <mxPoint x="-740" y="119.5" as="targetPoint" />
          </mxGeometry>
        </mxCell>
        <mxCell id="xFcL8hNEeigxIOY4OhWo-18" value="" style="fontSize=12;html=1;endArrow=ERmany;exitX=1;exitY=0.5;exitDx=0;exitDy=0;entryX=0.5;entryY=0;entryDx=0;entryDy=0;" parent="1" target="xFcL8hNEeigxIOY4OhWo-3" edge="1">
          <mxGeometry width="100" height="100" relative="1" as="geometry">
            <mxPoint x="-680" y="149" as="sourcePoint" />
            <mxPoint x="-610" y="149" as="targetPoint" />
          </mxGeometry>
        </mxCell>
        <mxCell id="xFcL8hNEeigxIOY4OhWo-19" value="Room" style="rounded=1;whiteSpace=wrap;html=1;" parent="1" vertex="1">
          <mxGeometry x="-555" y="470" width="120" height="60" as="geometry" />
        </mxCell>
        <mxCell id="xFcL8hNEeigxIOY4OhWo-20" value="" style="fontSize=12;html=1;endArrow=ERmany;exitX=0.5;exitY=1;exitDx=0;exitDy=0;entryX=0.5;entryY=0;entryDx=0;entryDy=0;" parent="1" source="xFcL8hNEeigxIOY4OhWo-9" target="xFcL8hNEeigxIOY4OhWo-19" edge="1">
          <mxGeometry width="100" height="100" relative="1" as="geometry">
            <mxPoint x="-485" y="410" as="sourcePoint" />
            <mxPoint x="-485" y="460" as="targetPoint" />
            <Array as="points" />
          </mxGeometry>
        </mxCell>
        <mxCell id="AtB5Vvl12ewjgAIRtyd5-1" value="Professor" style="shape=table;startSize=30;container=1;collapsible=1;childLayout=tableLayout;fixedRows=1;rowLines=0;fontStyle=1;align=center;resizeLast=1;" vertex="1" parent="1">
          <mxGeometry x="-150" y="317" width="180" height="160" as="geometry" />
        </mxCell>
        <mxCell id="AtB5Vvl12ewjgAIRtyd5-2" value="" style="shape=partialRectangle;collapsible=0;dropTarget=0;pointerEvents=0;fillColor=none;top=0;left=0;bottom=1;right=0;points=[[0,0.5],[1,0.5]];portConstraint=eastwest;" vertex="1" parent="AtB5Vvl12ewjgAIRtyd5-1">
          <mxGeometry y="30" width="180" height="30" as="geometry" />
        </mxCell>
        <mxCell id="AtB5Vvl12ewjgAIRtyd5-3" value="PK" style="shape=partialRectangle;connectable=0;fillColor=none;top=0;left=0;bottom=0;right=0;fontStyle=1;overflow=hidden;" vertex="1" parent="AtB5Vvl12ewjgAIRtyd5-2">
          <mxGeometry width="30" height="30" as="geometry" />
        </mxCell>
        <mxCell id="AtB5Vvl12ewjgAIRtyd5-4" value="TeacherID" style="shape=partialRectangle;connectable=0;fillColor=none;top=0;left=0;bottom=0;right=0;align=left;spacingLeft=6;fontStyle=5;overflow=hidden;" vertex="1" parent="AtB5Vvl12ewjgAIRtyd5-2">
          <mxGeometry x="30" width="150" height="30" as="geometry" />
        </mxCell>
        <mxCell id="AtB5Vvl12ewjgAIRtyd5-5" value="" style="shape=partialRectangle;collapsible=0;dropTarget=0;pointerEvents=0;fillColor=none;top=0;left=0;bottom=0;right=0;points=[[0,0.5],[1,0.5]];portConstraint=eastwest;" vertex="1" parent="AtB5Vvl12ewjgAIRtyd5-1">
          <mxGeometry y="60" width="180" height="30" as="geometry" />
        </mxCell>
        <mxCell id="AtB5Vvl12ewjgAIRtyd5-6" value="" style="shape=partialRectangle;connectable=0;fillColor=none;top=0;left=0;bottom=0;right=0;editable=1;overflow=hidden;" vertex="1" parent="AtB5Vvl12ewjgAIRtyd5-5">
          <mxGeometry width="30" height="30" as="geometry" />
        </mxCell>
        <mxCell id="AtB5Vvl12ewjgAIRtyd5-7" value="name" style="shape=partialRectangle;connectable=0;fillColor=none;top=0;left=0;bottom=0;right=0;align=left;spacingLeft=6;overflow=hidden;" vertex="1" parent="AtB5Vvl12ewjgAIRtyd5-5">
          <mxGeometry x="30" width="150" height="30" as="geometry" />
        </mxCell>
        <mxCell id="AtB5Vvl12ewjgAIRtyd5-8" value="" style="shape=partialRectangle;collapsible=0;dropTarget=0;pointerEvents=0;fillColor=none;top=0;left=0;bottom=0;right=0;points=[[0,0.5],[1,0.5]];portConstraint=eastwest;" vertex="1" parent="AtB5Vvl12ewjgAIRtyd5-1">
          <mxGeometry y="90" width="180" height="30" as="geometry" />
        </mxCell>
        <mxCell id="AtB5Vvl12ewjgAIRtyd5-9" value="" style="shape=partialRectangle;connectable=0;fillColor=none;top=0;left=0;bottom=0;right=0;editable=1;overflow=hidden;" vertex="1" parent="AtB5Vvl12ewjgAIRtyd5-8">
          <mxGeometry width="30" height="30" as="geometry" />
        </mxCell>
        <mxCell id="AtB5Vvl12ewjgAIRtyd5-10" value="Course" style="shape=partialRectangle;connectable=0;fillColor=none;top=0;left=0;bottom=0;right=0;align=left;spacingLeft=6;overflow=hidden;" vertex="1" parent="AtB5Vvl12ewjgAIRtyd5-8">
          <mxGeometry x="30" width="150" height="30" as="geometry" />
        </mxCell>
        <mxCell id="AtB5Vvl12ewjgAIRtyd5-11" value="" style="shape=partialRectangle;collapsible=0;dropTarget=0;pointerEvents=0;fillColor=none;top=0;left=0;bottom=0;right=0;points=[[0,0.5],[1,0.5]];portConstraint=eastwest;" vertex="1" parent="AtB5Vvl12ewjgAIRtyd5-1">
          <mxGeometry y="120" width="180" height="30" as="geometry" />
        </mxCell>
        <mxCell id="AtB5Vvl12ewjgAIRtyd5-12" value="" style="shape=partialRectangle;connectable=0;fillColor=none;top=0;left=0;bottom=0;right=0;editable=1;overflow=hidden;" vertex="1" parent="AtB5Vvl12ewjgAIRtyd5-11">
          <mxGeometry width="30" height="30" as="geometry" />
        </mxCell>
        <mxCell id="AtB5Vvl12ewjgAIRtyd5-13" value="Row 3" style="shape=partialRectangle;connectable=0;fillColor=none;top=0;left=0;bottom=0;right=0;align=left;spacingLeft=6;overflow=hidden;" vertex="1" parent="AtB5Vvl12ewjgAIRtyd5-11">
          <mxGeometry x="30" width="150" height="30" as="geometry" />
        </mxCell>
        <mxCell id="AtB5Vvl12ewjgAIRtyd5-14" value="Librarian&amp;nbsp;" style="rounded=1;whiteSpace=wrap;html=1;" vertex="1" parent="1">
          <mxGeometry x="-930" y="350" width="120" height="60" as="geometry" />
        </mxCell>
        <mxCell id="AtB5Vvl12ewjgAIRtyd5-15" value="" style="fontSize=12;html=1;endArrow=ERmany;" edge="1" parent="1">
          <mxGeometry width="100" height="100" relative="1" as="geometry">
            <mxPoint x="-870" y="347" as="sourcePoint" />
            <mxPoint x="-870" y="270" as="targetPoint" />
          </mxGeometry>
        </mxCell>
        <mxCell id="AtB5Vvl12ewjgAIRtyd5-16" value="Reading List" style="shape=table;startSize=30;container=1;collapsible=1;childLayout=tableLayout;fixedRows=1;rowLines=0;fontStyle=1;align=center;resizeLast=1;" vertex="1" parent="1">
          <mxGeometry x="100" y="317" width="180" height="160" as="geometry" />
        </mxCell>
        <mxCell id="AtB5Vvl12ewjgAIRtyd5-17" value="" style="shape=partialRectangle;collapsible=0;dropTarget=0;pointerEvents=0;fillColor=none;top=0;left=0;bottom=1;right=0;points=[[0,0.5],[1,0.5]];portConstraint=eastwest;" vertex="1" parent="AtB5Vvl12ewjgAIRtyd5-16">
          <mxGeometry y="30" width="180" height="30" as="geometry" />
        </mxCell>
        <mxCell id="AtB5Vvl12ewjgAIRtyd5-18" value="PK" style="shape=partialRectangle;connectable=0;fillColor=none;top=0;left=0;bottom=0;right=0;fontStyle=1;overflow=hidden;" vertex="1" parent="AtB5Vvl12ewjgAIRtyd5-17">
          <mxGeometry width="30" height="30" as="geometry" />
        </mxCell>
        <mxCell id="AtB5Vvl12ewjgAIRtyd5-19" value="ReadinglListID" style="shape=partialRectangle;connectable=0;fillColor=none;top=0;left=0;bottom=0;right=0;align=left;spacingLeft=6;fontStyle=5;overflow=hidden;" vertex="1" parent="AtB5Vvl12ewjgAIRtyd5-17">
          <mxGeometry x="30" width="150" height="30" as="geometry" />
        </mxCell>
        <mxCell id="AtB5Vvl12ewjgAIRtyd5-20" value="" style="shape=partialRectangle;collapsible=0;dropTarget=0;pointerEvents=0;fillColor=none;top=0;left=0;bottom=0;right=0;points=[[0,0.5],[1,0.5]];portConstraint=eastwest;" vertex="1" parent="AtB5Vvl12ewjgAIRtyd5-16">
          <mxGeometry y="60" width="180" height="30" as="geometry" />
        </mxCell>
        <mxCell id="AtB5Vvl12ewjgAIRtyd5-21" value="FK" style="shape=partialRectangle;connectable=0;fillColor=none;top=0;left=0;bottom=0;right=0;editable=1;overflow=hidden;" vertex="1" parent="AtB5Vvl12ewjgAIRtyd5-20">
          <mxGeometry width="30" height="30" as="geometry" />
        </mxCell>
        <mxCell id="AtB5Vvl12ewjgAIRtyd5-22" value="TeacherID" style="shape=partialRectangle;connectable=0;fillColor=none;top=0;left=0;bottom=0;right=0;align=left;spacingLeft=6;overflow=hidden;" vertex="1" parent="AtB5Vvl12ewjgAIRtyd5-20">
          <mxGeometry x="30" width="150" height="30" as="geometry" />
        </mxCell>
        <mxCell id="AtB5Vvl12ewjgAIRtyd5-23" value="" style="shape=partialRectangle;collapsible=0;dropTarget=0;pointerEvents=0;fillColor=none;top=0;left=0;bottom=0;right=0;points=[[0,0.5],[1,0.5]];portConstraint=eastwest;" vertex="1" parent="AtB5Vvl12ewjgAIRtyd5-16">
          <mxGeometry y="90" width="180" height="30" as="geometry" />
        </mxCell>
        <mxCell id="AtB5Vvl12ewjgAIRtyd5-24" value="" style="shape=partialRectangle;connectable=0;fillColor=none;top=0;left=0;bottom=0;right=0;editable=1;overflow=hidden;" vertex="1" parent="AtB5Vvl12ewjgAIRtyd5-23">
          <mxGeometry width="30" height="30" as="geometry" />
        </mxCell>
        <mxCell id="AtB5Vvl12ewjgAIRtyd5-25" value="" style="shape=partialRectangle;connectable=0;fillColor=none;top=0;left=0;bottom=0;right=0;align=left;spacingLeft=6;overflow=hidden;" vertex="1" parent="AtB5Vvl12ewjgAIRtyd5-23">
          <mxGeometry x="30" width="150" height="30" as="geometry" />
        </mxCell>
        <mxCell id="AtB5Vvl12ewjgAIRtyd5-26" value="" style="shape=partialRectangle;collapsible=0;dropTarget=0;pointerEvents=0;fillColor=none;top=0;left=0;bottom=0;right=0;points=[[0,0.5],[1,0.5]];portConstraint=eastwest;" vertex="1" parent="AtB5Vvl12ewjgAIRtyd5-16">
          <mxGeometry y="120" width="180" height="30" as="geometry" />
        </mxCell>
        <mxCell id="AtB5Vvl12ewjgAIRtyd5-27" value="" style="shape=partialRectangle;connectable=0;fillColor=none;top=0;left=0;bottom=0;right=0;editable=1;overflow=hidden;" vertex="1" parent="AtB5Vvl12ewjgAIRtyd5-26">
          <mxGeometry width="30" height="30" as="geometry" />
        </mxCell>
        <mxCell id="AtB5Vvl12ewjgAIRtyd5-28" value="" style="shape=partialRectangle;connectable=0;fillColor=none;top=0;left=0;bottom=0;right=0;align=left;spacingLeft=6;overflow=hidden;" vertex="1" parent="AtB5Vvl12ewjgAIRtyd5-26">
          <mxGeometry x="30" width="150" height="30" as="geometry" />
        </mxCell>
        <mxCell id="AtB5Vvl12ewjgAIRtyd5-29" value="Book" style="shape=table;startSize=30;container=1;collapsible=1;childLayout=tableLayout;fixedRows=1;rowLines=0;fontStyle=1;align=center;resizeLast=1;" vertex="1" parent="1">
          <mxGeometry x="-150" y="527" width="180" height="183" as="geometry" />
        </mxCell>
        <mxCell id="AtB5Vvl12ewjgAIRtyd5-30" value="" style="shape=partialRectangle;collapsible=0;dropTarget=0;pointerEvents=0;fillColor=none;top=0;left=0;bottom=1;right=0;points=[[0,0.5],[1,0.5]];portConstraint=eastwest;" vertex="1" parent="AtB5Vvl12ewjgAIRtyd5-29">
          <mxGeometry y="30" width="180" height="30" as="geometry" />
        </mxCell>
        <mxCell id="AtB5Vvl12ewjgAIRtyd5-31" value="PK" style="shape=partialRectangle;connectable=0;fillColor=none;top=0;left=0;bottom=0;right=0;fontStyle=1;overflow=hidden;" vertex="1" parent="AtB5Vvl12ewjgAIRtyd5-30">
          <mxGeometry width="30" height="30" as="geometry" />
        </mxCell>
        <mxCell id="AtB5Vvl12ewjgAIRtyd5-32" value="BookID" style="shape=partialRectangle;connectable=0;fillColor=none;top=0;left=0;bottom=0;right=0;align=left;spacingLeft=6;fontStyle=5;overflow=hidden;" vertex="1" parent="AtB5Vvl12ewjgAIRtyd5-30">
          <mxGeometry x="30" width="150" height="30" as="geometry" />
        </mxCell>
        <mxCell id="AtB5Vvl12ewjgAIRtyd5-33" value="" style="shape=partialRectangle;collapsible=0;dropTarget=0;pointerEvents=0;fillColor=none;top=0;left=0;bottom=0;right=0;points=[[0,0.5],[1,0.5]];portConstraint=eastwest;" vertex="1" parent="AtB5Vvl12ewjgAIRtyd5-29">
          <mxGeometry y="60" width="180" height="30" as="geometry" />
        </mxCell>
        <mxCell id="AtB5Vvl12ewjgAIRtyd5-34" value="" style="shape=partialRectangle;connectable=0;fillColor=none;top=0;left=0;bottom=0;right=0;editable=1;overflow=hidden;" vertex="1" parent="AtB5Vvl12ewjgAIRtyd5-33">
          <mxGeometry width="30" height="30" as="geometry" />
        </mxCell>
        <mxCell id="AtB5Vvl12ewjgAIRtyd5-35" value="title" style="shape=partialRectangle;connectable=0;fillColor=none;top=0;left=0;bottom=0;right=0;align=left;spacingLeft=6;overflow=hidden;" vertex="1" parent="AtB5Vvl12ewjgAIRtyd5-33">
          <mxGeometry x="30" width="150" height="30" as="geometry" />
        </mxCell>
        <mxCell id="AtB5Vvl12ewjgAIRtyd5-36" value="" style="shape=partialRectangle;collapsible=0;dropTarget=0;pointerEvents=0;fillColor=none;top=0;left=0;bottom=0;right=0;points=[[0,0.5],[1,0.5]];portConstraint=eastwest;" vertex="1" parent="AtB5Vvl12ewjgAIRtyd5-29">
          <mxGeometry y="90" width="180" height="30" as="geometry" />
        </mxCell>
        <mxCell id="AtB5Vvl12ewjgAIRtyd5-37" value="" style="shape=partialRectangle;connectable=0;fillColor=none;top=0;left=0;bottom=0;right=0;editable=1;overflow=hidden;" vertex="1" parent="AtB5Vvl12ewjgAIRtyd5-36">
          <mxGeometry width="30" height="30" as="geometry" />
        </mxCell>
        <mxCell id="AtB5Vvl12ewjgAIRtyd5-38" value="Author" style="shape=partialRectangle;connectable=0;fillColor=none;top=0;left=0;bottom=0;right=0;align=left;spacingLeft=6;overflow=hidden;" vertex="1" parent="AtB5Vvl12ewjgAIRtyd5-36">
          <mxGeometry x="30" width="150" height="30" as="geometry" />
        </mxCell>
        <mxCell id="AtB5Vvl12ewjgAIRtyd5-39" value="" style="shape=partialRectangle;collapsible=0;dropTarget=0;pointerEvents=0;fillColor=none;top=0;left=0;bottom=0;right=0;points=[[0,0.5],[1,0.5]];portConstraint=eastwest;" vertex="1" parent="AtB5Vvl12ewjgAIRtyd5-29">
          <mxGeometry y="120" width="180" height="30" as="geometry" />
        </mxCell>
        <mxCell id="AtB5Vvl12ewjgAIRtyd5-40" value="" style="shape=partialRectangle;connectable=0;fillColor=none;top=0;left=0;bottom=0;right=0;editable=1;overflow=hidden;" vertex="1" parent="AtB5Vvl12ewjgAIRtyd5-39">
          <mxGeometry width="30" height="30" as="geometry" />
        </mxCell>
        <mxCell id="AtB5Vvl12ewjgAIRtyd5-41" value="Classification " style="shape=partialRectangle;connectable=0;fillColor=none;top=0;left=0;bottom=0;right=0;align=left;spacingLeft=6;overflow=hidden;" vertex="1" parent="AtB5Vvl12ewjgAIRtyd5-39">
          <mxGeometry x="30" width="150" height="30" as="geometry" />
        </mxCell>
        <mxCell id="AtB5Vvl12ewjgAIRtyd5-42" value="Book Copy" style="shape=table;startSize=30;container=1;collapsible=1;childLayout=tableLayout;fixedRows=1;rowLines=0;fontStyle=1;align=center;resizeLast=1;" vertex="1" parent="1">
          <mxGeometry x="100" y="527" width="180" height="160" as="geometry" />
        </mxCell>
        <mxCell id="AtB5Vvl12ewjgAIRtyd5-43" value="" style="shape=partialRectangle;collapsible=0;dropTarget=0;pointerEvents=0;fillColor=none;top=0;left=0;bottom=1;right=0;points=[[0,0.5],[1,0.5]];portConstraint=eastwest;" vertex="1" parent="AtB5Vvl12ewjgAIRtyd5-42">
          <mxGeometry y="30" width="180" height="30" as="geometry" />
        </mxCell>
        <mxCell id="AtB5Vvl12ewjgAIRtyd5-44" value="PK" style="shape=partialRectangle;connectable=0;fillColor=none;top=0;left=0;bottom=0;right=0;fontStyle=1;overflow=hidden;" vertex="1" parent="AtB5Vvl12ewjgAIRtyd5-43">
          <mxGeometry width="30" height="30" as="geometry" />
        </mxCell>
        <mxCell id="AtB5Vvl12ewjgAIRtyd5-45" value="CopyID" style="shape=partialRectangle;connectable=0;fillColor=none;top=0;left=0;bottom=0;right=0;align=left;spacingLeft=6;fontStyle=5;overflow=hidden;" vertex="1" parent="AtB5Vvl12ewjgAIRtyd5-43">
          <mxGeometry x="30" width="150" height="30" as="geometry" />
        </mxCell>
        <mxCell id="AtB5Vvl12ewjgAIRtyd5-46" value="" style="shape=partialRectangle;collapsible=0;dropTarget=0;pointerEvents=0;fillColor=none;top=0;left=0;bottom=0;right=0;points=[[0,0.5],[1,0.5]];portConstraint=eastwest;" vertex="1" parent="AtB5Vvl12ewjgAIRtyd5-42">
          <mxGeometry y="60" width="180" height="30" as="geometry" />
        </mxCell>
        <mxCell id="AtB5Vvl12ewjgAIRtyd5-47" value="FK" style="shape=partialRectangle;connectable=0;fillColor=none;top=0;left=0;bottom=0;right=0;editable=1;overflow=hidden;" vertex="1" parent="AtB5Vvl12ewjgAIRtyd5-46">
          <mxGeometry width="30" height="30" as="geometry" />
        </mxCell>
        <mxCell id="AtB5Vvl12ewjgAIRtyd5-48" value="ReadingListID" style="shape=partialRectangle;connectable=0;fillColor=none;top=0;left=0;bottom=0;right=0;align=left;spacingLeft=6;overflow=hidden;" vertex="1" parent="AtB5Vvl12ewjgAIRtyd5-46">
          <mxGeometry x="30" width="150" height="30" as="geometry" />
        </mxCell>
        <mxCell id="AtB5Vvl12ewjgAIRtyd5-49" value="" style="shape=partialRectangle;collapsible=0;dropTarget=0;pointerEvents=0;fillColor=none;top=0;left=0;bottom=0;right=0;points=[[0,0.5],[1,0.5]];portConstraint=eastwest;" vertex="1" parent="AtB5Vvl12ewjgAIRtyd5-42">
          <mxGeometry y="90" width="180" height="30" as="geometry" />
        </mxCell>
        <mxCell id="AtB5Vvl12ewjgAIRtyd5-50" value="FK" style="shape=partialRectangle;connectable=0;fillColor=none;top=0;left=0;bottom=0;right=0;editable=1;overflow=hidden;" vertex="1" parent="AtB5Vvl12ewjgAIRtyd5-49">
          <mxGeometry width="30" height="30" as="geometry" />
        </mxCell>
        <mxCell id="AtB5Vvl12ewjgAIRtyd5-51" value="BookID" style="shape=partialRectangle;connectable=0;fillColor=none;top=0;left=0;bottom=0;right=0;align=left;spacingLeft=6;overflow=hidden;" vertex="1" parent="AtB5Vvl12ewjgAIRtyd5-49">
          <mxGeometry x="30" width="150" height="30" as="geometry" />
        </mxCell>
        <mxCell id="AtB5Vvl12ewjgAIRtyd5-52" value="" style="shape=partialRectangle;collapsible=0;dropTarget=0;pointerEvents=0;fillColor=none;top=0;left=0;bottom=0;right=0;points=[[0,0.5],[1,0.5]];portConstraint=eastwest;" vertex="1" parent="AtB5Vvl12ewjgAIRtyd5-42">
          <mxGeometry y="120" width="180" height="30" as="geometry" />
        </mxCell>
        <mxCell id="AtB5Vvl12ewjgAIRtyd5-53" value="" style="shape=partialRectangle;connectable=0;fillColor=none;top=0;left=0;bottom=0;right=0;editable=1;overflow=hidden;" vertex="1" parent="AtB5Vvl12ewjgAIRtyd5-52">
          <mxGeometry width="30" height="30" as="geometry" />
        </mxCell>
        <mxCell id="AtB5Vvl12ewjgAIRtyd5-54" value="" style="shape=partialRectangle;connectable=0;fillColor=none;top=0;left=0;bottom=0;right=0;align=left;spacingLeft=6;overflow=hidden;" vertex="1" parent="AtB5Vvl12ewjgAIRtyd5-52">
          <mxGeometry x="30" width="150" height="30" as="geometry" />
        </mxCell>
        <mxCell id="AtB5Vvl12ewjgAIRtyd5-55" value="BookPrice" style="text;html=1;align=center;verticalAlign=middle;resizable=0;points=[];autosize=1;" vertex="1" parent="1">
          <mxGeometry x="-110" y="687" width="70" height="20" as="geometry" />
        </mxCell>
        <mxCell id="AtB5Vvl12ewjgAIRtyd5-57" value="Librarian" style="shape=table;startSize=30;container=1;collapsible=1;childLayout=tableLayout;fixedRows=1;rowLines=0;fontStyle=1;align=center;resizeLast=1;" vertex="1" parent="1">
          <mxGeometry x="-150" y="767" width="180" height="160" as="geometry" />
        </mxCell>
        <mxCell id="AtB5Vvl12ewjgAIRtyd5-58" value="" style="shape=partialRectangle;collapsible=0;dropTarget=0;pointerEvents=0;fillColor=none;top=0;left=0;bottom=1;right=0;points=[[0,0.5],[1,0.5]];portConstraint=eastwest;" vertex="1" parent="AtB5Vvl12ewjgAIRtyd5-57">
          <mxGeometry y="30" width="180" height="30" as="geometry" />
        </mxCell>
        <mxCell id="AtB5Vvl12ewjgAIRtyd5-59" value="PK" style="shape=partialRectangle;connectable=0;fillColor=none;top=0;left=0;bottom=0;right=0;fontStyle=1;overflow=hidden;" vertex="1" parent="AtB5Vvl12ewjgAIRtyd5-58">
          <mxGeometry width="30" height="30" as="geometry" />
        </mxCell>
        <mxCell id="AtB5Vvl12ewjgAIRtyd5-60" value="TeacherID" style="shape=partialRectangle;connectable=0;fillColor=none;top=0;left=0;bottom=0;right=0;align=left;spacingLeft=6;fontStyle=5;overflow=hidden;" vertex="1" parent="AtB5Vvl12ewjgAIRtyd5-58">
          <mxGeometry x="30" width="150" height="30" as="geometry" />
        </mxCell>
        <mxCell id="AtB5Vvl12ewjgAIRtyd5-61" value="" style="shape=partialRectangle;collapsible=0;dropTarget=0;pointerEvents=0;fillColor=none;top=0;left=0;bottom=0;right=0;points=[[0,0.5],[1,0.5]];portConstraint=eastwest;" vertex="1" parent="AtB5Vvl12ewjgAIRtyd5-57">
          <mxGeometry y="60" width="180" height="30" as="geometry" />
        </mxCell>
        <mxCell id="AtB5Vvl12ewjgAIRtyd5-62" value="" style="shape=partialRectangle;connectable=0;fillColor=none;top=0;left=0;bottom=0;right=0;editable=1;overflow=hidden;" vertex="1" parent="AtB5Vvl12ewjgAIRtyd5-61">
          <mxGeometry width="30" height="30" as="geometry" />
        </mxCell>
        <mxCell id="AtB5Vvl12ewjgAIRtyd5-63" value="name" style="shape=partialRectangle;connectable=0;fillColor=none;top=0;left=0;bottom=0;right=0;align=left;spacingLeft=6;overflow=hidden;" vertex="1" parent="AtB5Vvl12ewjgAIRtyd5-61">
          <mxGeometry x="30" width="150" height="30" as="geometry" />
        </mxCell>
        <mxCell id="AtB5Vvl12ewjgAIRtyd5-64" value="" style="shape=partialRectangle;collapsible=0;dropTarget=0;pointerEvents=0;fillColor=none;top=0;left=0;bottom=0;right=0;points=[[0,0.5],[1,0.5]];portConstraint=eastwest;" vertex="1" parent="AtB5Vvl12ewjgAIRtyd5-57">
          <mxGeometry y="90" width="180" height="30" as="geometry" />
        </mxCell>
        <mxCell id="AtB5Vvl12ewjgAIRtyd5-65" value="" style="shape=partialRectangle;connectable=0;fillColor=none;top=0;left=0;bottom=0;right=0;editable=1;overflow=hidden;" vertex="1" parent="AtB5Vvl12ewjgAIRtyd5-64">
          <mxGeometry width="30" height="30" as="geometry" />
        </mxCell>
        <mxCell id="AtB5Vvl12ewjgAIRtyd5-66" value="Course" style="shape=partialRectangle;connectable=0;fillColor=none;top=0;left=0;bottom=0;right=0;align=left;spacingLeft=6;overflow=hidden;" vertex="1" parent="AtB5Vvl12ewjgAIRtyd5-64">
          <mxGeometry x="30" width="150" height="30" as="geometry" />
        </mxCell>
        <mxCell id="AtB5Vvl12ewjgAIRtyd5-67" value="" style="shape=partialRectangle;collapsible=0;dropTarget=0;pointerEvents=0;fillColor=none;top=0;left=0;bottom=0;right=0;points=[[0,0.5],[1,0.5]];portConstraint=eastwest;" vertex="1" parent="AtB5Vvl12ewjgAIRtyd5-57">
          <mxGeometry y="120" width="180" height="30" as="geometry" />
        </mxCell>
        <mxCell id="AtB5Vvl12ewjgAIRtyd5-68" value="" style="shape=partialRectangle;connectable=0;fillColor=none;top=0;left=0;bottom=0;right=0;editable=1;overflow=hidden;" vertex="1" parent="AtB5Vvl12ewjgAIRtyd5-67">
          <mxGeometry width="30" height="30" as="geometry" />
        </mxCell>
        <mxCell id="AtB5Vvl12ewjgAIRtyd5-69" value="Row 3" style="shape=partialRectangle;connectable=0;fillColor=none;top=0;left=0;bottom=0;right=0;align=left;spacingLeft=6;overflow=hidden;" vertex="1" parent="AtB5Vvl12ewjgAIRtyd5-67">
          <mxGeometry x="30" width="150" height="30" as="geometry" />
        </mxCell>
        <mxCell id="AtB5Vvl12ewjgAIRtyd5-70" value="Loan" style="shape=table;startSize=30;container=1;collapsible=1;childLayout=tableLayout;fixedRows=1;rowLines=0;fontStyle=1;align=center;resizeLast=1;" vertex="1" parent="1">
          <mxGeometry x="100" y="767" width="180" height="163" as="geometry" />
        </mxCell>
        <mxCell id="AtB5Vvl12ewjgAIRtyd5-71" value="" style="shape=partialRectangle;collapsible=0;dropTarget=0;pointerEvents=0;fillColor=none;top=0;left=0;bottom=1;right=0;points=[[0,0.5],[1,0.5]];portConstraint=eastwest;" vertex="1" parent="AtB5Vvl12ewjgAIRtyd5-70">
          <mxGeometry y="30" width="180" height="30" as="geometry" />
        </mxCell>
        <mxCell id="AtB5Vvl12ewjgAIRtyd5-72" value="PK" style="shape=partialRectangle;connectable=0;fillColor=none;top=0;left=0;bottom=0;right=0;fontStyle=1;overflow=hidden;" vertex="1" parent="AtB5Vvl12ewjgAIRtyd5-71">
          <mxGeometry width="30" height="30" as="geometry" />
        </mxCell>
        <mxCell id="AtB5Vvl12ewjgAIRtyd5-73" value="TeacherID" style="shape=partialRectangle;connectable=0;fillColor=none;top=0;left=0;bottom=0;right=0;align=left;spacingLeft=6;fontStyle=5;overflow=hidden;" vertex="1" parent="AtB5Vvl12ewjgAIRtyd5-71">
          <mxGeometry x="30" width="150" height="30" as="geometry" />
        </mxCell>
        <mxCell id="AtB5Vvl12ewjgAIRtyd5-74" value="" style="shape=partialRectangle;collapsible=0;dropTarget=0;pointerEvents=0;fillColor=none;top=0;left=0;bottom=0;right=0;points=[[0,0.5],[1,0.5]];portConstraint=eastwest;" vertex="1" parent="AtB5Vvl12ewjgAIRtyd5-70">
          <mxGeometry y="60" width="180" height="30" as="geometry" />
        </mxCell>
        <mxCell id="AtB5Vvl12ewjgAIRtyd5-75" value="" style="shape=partialRectangle;connectable=0;fillColor=none;top=0;left=0;bottom=0;right=0;editable=1;overflow=hidden;" vertex="1" parent="AtB5Vvl12ewjgAIRtyd5-74">
          <mxGeometry width="30" height="30" as="geometry" />
        </mxCell>
        <mxCell id="AtB5Vvl12ewjgAIRtyd5-76" value="name" style="shape=partialRectangle;connectable=0;fillColor=none;top=0;left=0;bottom=0;right=0;align=left;spacingLeft=6;overflow=hidden;" vertex="1" parent="AtB5Vvl12ewjgAIRtyd5-74">
          <mxGeometry x="30" width="150" height="30" as="geometry" />
        </mxCell>
        <mxCell id="AtB5Vvl12ewjgAIRtyd5-77" value="" style="shape=partialRectangle;collapsible=0;dropTarget=0;pointerEvents=0;fillColor=none;top=0;left=0;bottom=0;right=0;points=[[0,0.5],[1,0.5]];portConstraint=eastwest;" vertex="1" parent="AtB5Vvl12ewjgAIRtyd5-70">
          <mxGeometry y="90" width="180" height="30" as="geometry" />
        </mxCell>
        <mxCell id="AtB5Vvl12ewjgAIRtyd5-78" value="" style="shape=partialRectangle;connectable=0;fillColor=none;top=0;left=0;bottom=0;right=0;editable=1;overflow=hidden;" vertex="1" parent="AtB5Vvl12ewjgAIRtyd5-77">
          <mxGeometry width="30" height="30" as="geometry" />
        </mxCell>
        <mxCell id="AtB5Vvl12ewjgAIRtyd5-79" value="Course" style="shape=partialRectangle;connectable=0;fillColor=none;top=0;left=0;bottom=0;right=0;align=left;spacingLeft=6;overflow=hidden;" vertex="1" parent="AtB5Vvl12ewjgAIRtyd5-77">
          <mxGeometry x="30" width="150" height="30" as="geometry" />
        </mxCell>
        <mxCell id="AtB5Vvl12ewjgAIRtyd5-80" value="" style="shape=partialRectangle;collapsible=0;dropTarget=0;pointerEvents=0;fillColor=none;top=0;left=0;bottom=0;right=0;points=[[0,0.5],[1,0.5]];portConstraint=eastwest;" vertex="1" parent="AtB5Vvl12ewjgAIRtyd5-70">
          <mxGeometry y="120" width="180" height="33" as="geometry" />
        </mxCell>
        <mxCell id="AtB5Vvl12ewjgAIRtyd5-81" value="" style="shape=partialRectangle;connectable=0;fillColor=none;top=0;left=0;bottom=0;right=0;editable=1;overflow=hidden;" vertex="1" parent="AtB5Vvl12ewjgAIRtyd5-80">
          <mxGeometry width="30" height="33" as="geometry" />
        </mxCell>
        <mxCell id="AtB5Vvl12ewjgAIRtyd5-82" value="Row 3" style="shape=partialRectangle;connectable=0;fillColor=none;top=0;left=0;bottom=0;right=0;align=left;spacingLeft=6;overflow=hidden;" vertex="1" parent="AtB5Vvl12ewjgAIRtyd5-80">
          <mxGeometry x="30" width="150" height="33" as="geometry" />
        </mxCell>
        <mxCell id="AtB5Vvl12ewjgAIRtyd5-83" value="Reservation" style="shape=table;startSize=30;container=1;collapsible=1;childLayout=tableLayout;fixedRows=1;rowLines=0;fontStyle=1;align=center;resizeLast=1;" vertex="1" parent="1">
          <mxGeometry x="360" y="527" width="180" height="160" as="geometry" />
        </mxCell>
        <mxCell id="AtB5Vvl12ewjgAIRtyd5-84" value="" style="shape=partialRectangle;collapsible=0;dropTarget=0;pointerEvents=0;fillColor=none;top=0;left=0;bottom=1;right=0;points=[[0,0.5],[1,0.5]];portConstraint=eastwest;" vertex="1" parent="AtB5Vvl12ewjgAIRtyd5-83">
          <mxGeometry y="30" width="180" height="30" as="geometry" />
        </mxCell>
        <mxCell id="AtB5Vvl12ewjgAIRtyd5-85" value="PK" style="shape=partialRectangle;connectable=0;fillColor=none;top=0;left=0;bottom=0;right=0;fontStyle=1;overflow=hidden;" vertex="1" parent="AtB5Vvl12ewjgAIRtyd5-84">
          <mxGeometry width="30" height="30" as="geometry" />
        </mxCell>
        <mxCell id="AtB5Vvl12ewjgAIRtyd5-86" value="TeacherID" style="shape=partialRectangle;connectable=0;fillColor=none;top=0;left=0;bottom=0;right=0;align=left;spacingLeft=6;fontStyle=5;overflow=hidden;" vertex="1" parent="AtB5Vvl12ewjgAIRtyd5-84">
          <mxGeometry x="30" width="150" height="30" as="geometry" />
        </mxCell>
        <mxCell id="AtB5Vvl12ewjgAIRtyd5-87" value="" style="shape=partialRectangle;collapsible=0;dropTarget=0;pointerEvents=0;fillColor=none;top=0;left=0;bottom=0;right=0;points=[[0,0.5],[1,0.5]];portConstraint=eastwest;" vertex="1" parent="AtB5Vvl12ewjgAIRtyd5-83">
          <mxGeometry y="60" width="180" height="30" as="geometry" />
        </mxCell>
        <mxCell id="AtB5Vvl12ewjgAIRtyd5-88" value="" style="shape=partialRectangle;connectable=0;fillColor=none;top=0;left=0;bottom=0;right=0;editable=1;overflow=hidden;" vertex="1" parent="AtB5Vvl12ewjgAIRtyd5-87">
          <mxGeometry width="30" height="30" as="geometry" />
        </mxCell>
        <mxCell id="AtB5Vvl12ewjgAIRtyd5-89" value="name" style="shape=partialRectangle;connectable=0;fillColor=none;top=0;left=0;bottom=0;right=0;align=left;spacingLeft=6;overflow=hidden;" vertex="1" parent="AtB5Vvl12ewjgAIRtyd5-87">
          <mxGeometry x="30" width="150" height="30" as="geometry" />
        </mxCell>
        <mxCell id="AtB5Vvl12ewjgAIRtyd5-90" value="" style="shape=partialRectangle;collapsible=0;dropTarget=0;pointerEvents=0;fillColor=none;top=0;left=0;bottom=0;right=0;points=[[0,0.5],[1,0.5]];portConstraint=eastwest;" vertex="1" parent="AtB5Vvl12ewjgAIRtyd5-83">
          <mxGeometry y="90" width="180" height="30" as="geometry" />
        </mxCell>
        <mxCell id="AtB5Vvl12ewjgAIRtyd5-91" value="" style="shape=partialRectangle;connectable=0;fillColor=none;top=0;left=0;bottom=0;right=0;editable=1;overflow=hidden;" vertex="1" parent="AtB5Vvl12ewjgAIRtyd5-90">
          <mxGeometry width="30" height="30" as="geometry" />
        </mxCell>
        <mxCell id="AtB5Vvl12ewjgAIRtyd5-92" value="Course" style="shape=partialRectangle;connectable=0;fillColor=none;top=0;left=0;bottom=0;right=0;align=left;spacingLeft=6;overflow=hidden;" vertex="1" parent="AtB5Vvl12ewjgAIRtyd5-90">
          <mxGeometry x="30" width="150" height="30" as="geometry" />
        </mxCell>
        <mxCell id="AtB5Vvl12ewjgAIRtyd5-93" value="" style="shape=partialRectangle;collapsible=0;dropTarget=0;pointerEvents=0;fillColor=none;top=0;left=0;bottom=0;right=0;points=[[0,0.5],[1,0.5]];portConstraint=eastwest;" vertex="1" parent="AtB5Vvl12ewjgAIRtyd5-83">
          <mxGeometry y="120" width="180" height="30" as="geometry" />
        </mxCell>
        <mxCell id="AtB5Vvl12ewjgAIRtyd5-94" value="" style="shape=partialRectangle;connectable=0;fillColor=none;top=0;left=0;bottom=0;right=0;editable=1;overflow=hidden;" vertex="1" parent="AtB5Vvl12ewjgAIRtyd5-93">
          <mxGeometry width="30" height="30" as="geometry" />
        </mxCell>
        <mxCell id="AtB5Vvl12ewjgAIRtyd5-95" value="Row 3" style="shape=partialRectangle;connectable=0;fillColor=none;top=0;left=0;bottom=0;right=0;align=left;spacingLeft=6;overflow=hidden;" vertex="1" parent="AtB5Vvl12ewjgAIRtyd5-93">
          <mxGeometry x="30" width="150" height="30" as="geometry" />
        </mxCell>
        <mxCell id="AtB5Vvl12ewjgAIRtyd5-96" value="Student" style="shape=table;startSize=30;container=1;collapsible=1;childLayout=tableLayout;fixedRows=1;rowLines=0;fontStyle=1;align=center;resizeLast=1;" vertex="1" parent="1">
          <mxGeometry x="360" y="767" width="180" height="160" as="geometry" />
        </mxCell>
        <mxCell id="AtB5Vvl12ewjgAIRtyd5-97" value="" style="shape=partialRectangle;collapsible=0;dropTarget=0;pointerEvents=0;fillColor=none;top=0;left=0;bottom=1;right=0;points=[[0,0.5],[1,0.5]];portConstraint=eastwest;" vertex="1" parent="AtB5Vvl12ewjgAIRtyd5-96">
          <mxGeometry y="30" width="180" height="30" as="geometry" />
        </mxCell>
        <mxCell id="AtB5Vvl12ewjgAIRtyd5-98" value="PK" style="shape=partialRectangle;connectable=0;fillColor=none;top=0;left=0;bottom=0;right=0;fontStyle=1;overflow=hidden;" vertex="1" parent="AtB5Vvl12ewjgAIRtyd5-97">
          <mxGeometry width="30" height="30" as="geometry" />
        </mxCell>
        <mxCell id="AtB5Vvl12ewjgAIRtyd5-99" value="TeacherID" style="shape=partialRectangle;connectable=0;fillColor=none;top=0;left=0;bottom=0;right=0;align=left;spacingLeft=6;fontStyle=5;overflow=hidden;" vertex="1" parent="AtB5Vvl12ewjgAIRtyd5-97">
          <mxGeometry x="30" width="150" height="30" as="geometry" />
        </mxCell>
        <mxCell id="AtB5Vvl12ewjgAIRtyd5-100" value="" style="shape=partialRectangle;collapsible=0;dropTarget=0;pointerEvents=0;fillColor=none;top=0;left=0;bottom=0;right=0;points=[[0,0.5],[1,0.5]];portConstraint=eastwest;" vertex="1" parent="AtB5Vvl12ewjgAIRtyd5-96">
          <mxGeometry y="60" width="180" height="30" as="geometry" />
        </mxCell>
        <mxCell id="AtB5Vvl12ewjgAIRtyd5-101" value="" style="shape=partialRectangle;connectable=0;fillColor=none;top=0;left=0;bottom=0;right=0;editable=1;overflow=hidden;" vertex="1" parent="AtB5Vvl12ewjgAIRtyd5-100">
          <mxGeometry width="30" height="30" as="geometry" />
        </mxCell>
        <mxCell id="AtB5Vvl12ewjgAIRtyd5-102" value="name" style="shape=partialRectangle;connectable=0;fillColor=none;top=0;left=0;bottom=0;right=0;align=left;spacingLeft=6;overflow=hidden;" vertex="1" parent="AtB5Vvl12ewjgAIRtyd5-100">
          <mxGeometry x="30" width="150" height="30" as="geometry" />
        </mxCell>
        <mxCell id="AtB5Vvl12ewjgAIRtyd5-103" value="" style="shape=partialRectangle;collapsible=0;dropTarget=0;pointerEvents=0;fillColor=none;top=0;left=0;bottom=0;right=0;points=[[0,0.5],[1,0.5]];portConstraint=eastwest;" vertex="1" parent="AtB5Vvl12ewjgAIRtyd5-96">
          <mxGeometry y="90" width="180" height="30" as="geometry" />
        </mxCell>
        <mxCell id="AtB5Vvl12ewjgAIRtyd5-104" value="" style="shape=partialRectangle;connectable=0;fillColor=none;top=0;left=0;bottom=0;right=0;editable=1;overflow=hidden;" vertex="1" parent="AtB5Vvl12ewjgAIRtyd5-103">
          <mxGeometry width="30" height="30" as="geometry" />
        </mxCell>
        <mxCell id="AtB5Vvl12ewjgAIRtyd5-105" value="Course" style="shape=partialRectangle;connectable=0;fillColor=none;top=0;left=0;bottom=0;right=0;align=left;spacingLeft=6;overflow=hidden;" vertex="1" parent="AtB5Vvl12ewjgAIRtyd5-103">
          <mxGeometry x="30" width="150" height="30" as="geometry" />
        </mxCell>
        <mxCell id="AtB5Vvl12ewjgAIRtyd5-106" value="" style="shape=partialRectangle;collapsible=0;dropTarget=0;pointerEvents=0;fillColor=none;top=0;left=0;bottom=0;right=0;points=[[0,0.5],[1,0.5]];portConstraint=eastwest;" vertex="1" parent="AtB5Vvl12ewjgAIRtyd5-96">
          <mxGeometry y="120" width="180" height="30" as="geometry" />
        </mxCell>
        <mxCell id="AtB5Vvl12ewjgAIRtyd5-107" value="" style="shape=partialRectangle;connectable=0;fillColor=none;top=0;left=0;bottom=0;right=0;editable=1;overflow=hidden;" vertex="1" parent="AtB5Vvl12ewjgAIRtyd5-106">
          <mxGeometry width="30" height="30" as="geometry" />
        </mxCell>
        <mxCell id="AtB5Vvl12ewjgAIRtyd5-108" value="Row 3" style="shape=partialRectangle;connectable=0;fillColor=none;top=0;left=0;bottom=0;right=0;align=left;spacingLeft=6;overflow=hidden;" vertex="1" parent="AtB5Vvl12ewjgAIRtyd5-106">
          <mxGeometry x="30" width="150" height="30" as="geometry" />
        </mxCell>
        <mxCell id="AtB5Vvl12ewjgAIRtyd5-109" value="Room" style="shape=table;startSize=30;container=1;collapsible=1;childLayout=tableLayout;fixedRows=1;rowLines=0;fontStyle=1;align=center;resizeLast=1;" vertex="1" parent="1">
          <mxGeometry x="360" y="990" width="180" height="160" as="geometry" />
        </mxCell>
        <mxCell id="AtB5Vvl12ewjgAIRtyd5-110" value="" style="shape=partialRectangle;collapsible=0;dropTarget=0;pointerEvents=0;fillColor=none;top=0;left=0;bottom=1;right=0;points=[[0,0.5],[1,0.5]];portConstraint=eastwest;" vertex="1" parent="AtB5Vvl12ewjgAIRtyd5-109">
          <mxGeometry y="30" width="180" height="30" as="geometry" />
        </mxCell>
        <mxCell id="AtB5Vvl12ewjgAIRtyd5-111" value="PK" style="shape=partialRectangle;connectable=0;fillColor=none;top=0;left=0;bottom=0;right=0;fontStyle=1;overflow=hidden;" vertex="1" parent="AtB5Vvl12ewjgAIRtyd5-110">
          <mxGeometry width="30" height="30" as="geometry" />
        </mxCell>
        <mxCell id="AtB5Vvl12ewjgAIRtyd5-112" value="TeacherID" style="shape=partialRectangle;connectable=0;fillColor=none;top=0;left=0;bottom=0;right=0;align=left;spacingLeft=6;fontStyle=5;overflow=hidden;" vertex="1" parent="AtB5Vvl12ewjgAIRtyd5-110">
          <mxGeometry x="30" width="150" height="30" as="geometry" />
        </mxCell>
        <mxCell id="AtB5Vvl12ewjgAIRtyd5-113" value="" style="shape=partialRectangle;collapsible=0;dropTarget=0;pointerEvents=0;fillColor=none;top=0;left=0;bottom=0;right=0;points=[[0,0.5],[1,0.5]];portConstraint=eastwest;" vertex="1" parent="AtB5Vvl12ewjgAIRtyd5-109">
          <mxGeometry y="60" width="180" height="30" as="geometry" />
        </mxCell>
        <mxCell id="AtB5Vvl12ewjgAIRtyd5-114" value="" style="shape=partialRectangle;connectable=0;fillColor=none;top=0;left=0;bottom=0;right=0;editable=1;overflow=hidden;" vertex="1" parent="AtB5Vvl12ewjgAIRtyd5-113">
          <mxGeometry width="30" height="30" as="geometry" />
        </mxCell>
        <mxCell id="AtB5Vvl12ewjgAIRtyd5-115" value="name" style="shape=partialRectangle;connectable=0;fillColor=none;top=0;left=0;bottom=0;right=0;align=left;spacingLeft=6;overflow=hidden;" vertex="1" parent="AtB5Vvl12ewjgAIRtyd5-113">
          <mxGeometry x="30" width="150" height="30" as="geometry" />
        </mxCell>
        <mxCell id="AtB5Vvl12ewjgAIRtyd5-116" value="" style="shape=partialRectangle;collapsible=0;dropTarget=0;pointerEvents=0;fillColor=none;top=0;left=0;bottom=0;right=0;points=[[0,0.5],[1,0.5]];portConstraint=eastwest;" vertex="1" parent="AtB5Vvl12ewjgAIRtyd5-109">
          <mxGeometry y="90" width="180" height="30" as="geometry" />
        </mxCell>
        <mxCell id="AtB5Vvl12ewjgAIRtyd5-117" value="" style="shape=partialRectangle;connectable=0;fillColor=none;top=0;left=0;bottom=0;right=0;editable=1;overflow=hidden;" vertex="1" parent="AtB5Vvl12ewjgAIRtyd5-116">
          <mxGeometry width="30" height="30" as="geometry" />
        </mxCell>
        <mxCell id="AtB5Vvl12ewjgAIRtyd5-118" value="Course" style="shape=partialRectangle;connectable=0;fillColor=none;top=0;left=0;bottom=0;right=0;align=left;spacingLeft=6;overflow=hidden;" vertex="1" parent="AtB5Vvl12ewjgAIRtyd5-116">
          <mxGeometry x="30" width="150" height="30" as="geometry" />
        </mxCell>
        <mxCell id="AtB5Vvl12ewjgAIRtyd5-119" value="" style="shape=partialRectangle;collapsible=0;dropTarget=0;pointerEvents=0;fillColor=none;top=0;left=0;bottom=0;right=0;points=[[0,0.5],[1,0.5]];portConstraint=eastwest;" vertex="1" parent="AtB5Vvl12ewjgAIRtyd5-109">
          <mxGeometry y="120" width="180" height="30" as="geometry" />
        </mxCell>
        <mxCell id="AtB5Vvl12ewjgAIRtyd5-120" value="" style="shape=partialRectangle;connectable=0;fillColor=none;top=0;left=0;bottom=0;right=0;editable=1;overflow=hidden;" vertex="1" parent="AtB5Vvl12ewjgAIRtyd5-119">
          <mxGeometry width="30" height="30" as="geometry" />
        </mxCell>
        <mxCell id="AtB5Vvl12ewjgAIRtyd5-121" value="Row 3" style="shape=partialRectangle;connectable=0;fillColor=none;top=0;left=0;bottom=0;right=0;align=left;spacingLeft=6;overflow=hidden;" vertex="1" parent="AtB5Vvl12ewjgAIRtyd5-119">
          <mxGeometry x="30" width="150" height="30" as="geometry" />
        </mxCell>
        <mxCell id="AtB5Vvl12ewjgAIRtyd5-122" value="Admin" style="rounded=1;whiteSpace=wrap;html=1;" vertex="1" parent="1">
          <mxGeometry x="-1120" y="210" width="120" height="60" as="geometry" />
        </mxCell>
        <mxCell id="AtB5Vvl12ewjgAIRtyd5-123" value="" style="edgeStyle=entityRelationEdgeStyle;fontSize=12;html=1;endArrow=ERmany;exitX=1;exitY=0.5;exitDx=0;exitDy=0;" edge="1" parent="1">
          <mxGeometry width="100" height="100" relative="1" as="geometry">
            <mxPoint x="-1000" y="239.29000000000002" as="sourcePoint" />
            <mxPoint x="-930" y="239.29000000000002" as="targetPoint" />
          </mxGeometry>
        </mxCell>
        <mxCell id="AtB5Vvl12ewjgAIRtyd5-124" value="Admin" style="shape=table;startSize=30;container=1;collapsible=1;childLayout=tableLayout;fixedRows=1;rowLines=0;fontStyle=1;align=center;resizeLast=1;" vertex="1" parent="1">
          <mxGeometry x="-410" y="527" width="180" height="160" as="geometry" />
        </mxCell>
        <mxCell id="AtB5Vvl12ewjgAIRtyd5-125" value="" style="shape=partialRectangle;collapsible=0;dropTarget=0;pointerEvents=0;fillColor=none;top=0;left=0;bottom=1;right=0;points=[[0,0.5],[1,0.5]];portConstraint=eastwest;" vertex="1" parent="AtB5Vvl12ewjgAIRtyd5-124">
          <mxGeometry y="30" width="180" height="30" as="geometry" />
        </mxCell>
        <mxCell id="AtB5Vvl12ewjgAIRtyd5-126" value="PK" style="shape=partialRectangle;connectable=0;fillColor=none;top=0;left=0;bottom=0;right=0;fontStyle=1;overflow=hidden;" vertex="1" parent="AtB5Vvl12ewjgAIRtyd5-125">
          <mxGeometry width="30" height="30" as="geometry" />
        </mxCell>
        <mxCell id="AtB5Vvl12ewjgAIRtyd5-127" value="TeacherID" style="shape=partialRectangle;connectable=0;fillColor=none;top=0;left=0;bottom=0;right=0;align=left;spacingLeft=6;fontStyle=5;overflow=hidden;" vertex="1" parent="AtB5Vvl12ewjgAIRtyd5-125">
          <mxGeometry x="30" width="150" height="30" as="geometry" />
        </mxCell>
        <mxCell id="AtB5Vvl12ewjgAIRtyd5-128" value="" style="shape=partialRectangle;collapsible=0;dropTarget=0;pointerEvents=0;fillColor=none;top=0;left=0;bottom=0;right=0;points=[[0,0.5],[1,0.5]];portConstraint=eastwest;" vertex="1" parent="AtB5Vvl12ewjgAIRtyd5-124">
          <mxGeometry y="60" width="180" height="30" as="geometry" />
        </mxCell>
        <mxCell id="AtB5Vvl12ewjgAIRtyd5-129" value="" style="shape=partialRectangle;connectable=0;fillColor=none;top=0;left=0;bottom=0;right=0;editable=1;overflow=hidden;" vertex="1" parent="AtB5Vvl12ewjgAIRtyd5-128">
          <mxGeometry width="30" height="30" as="geometry" />
        </mxCell>
        <mxCell id="AtB5Vvl12ewjgAIRtyd5-130" value="name" style="shape=partialRectangle;connectable=0;fillColor=none;top=0;left=0;bottom=0;right=0;align=left;spacingLeft=6;overflow=hidden;" vertex="1" parent="AtB5Vvl12ewjgAIRtyd5-128">
          <mxGeometry x="30" width="150" height="30" as="geometry" />
        </mxCell>
        <mxCell id="AtB5Vvl12ewjgAIRtyd5-131" value="" style="shape=partialRectangle;collapsible=0;dropTarget=0;pointerEvents=0;fillColor=none;top=0;left=0;bottom=0;right=0;points=[[0,0.5],[1,0.5]];portConstraint=eastwest;" vertex="1" parent="AtB5Vvl12ewjgAIRtyd5-124">
          <mxGeometry y="90" width="180" height="30" as="geometry" />
        </mxCell>
        <mxCell id="AtB5Vvl12ewjgAIRtyd5-132" value="" style="shape=partialRectangle;connectable=0;fillColor=none;top=0;left=0;bottom=0;right=0;editable=1;overflow=hidden;" vertex="1" parent="AtB5Vvl12ewjgAIRtyd5-131">
          <mxGeometry width="30" height="30" as="geometry" />
        </mxCell>
        <mxCell id="AtB5Vvl12ewjgAIRtyd5-133" value="Course" style="shape=partialRectangle;connectable=0;fillColor=none;top=0;left=0;bottom=0;right=0;align=left;spacingLeft=6;overflow=hidden;" vertex="1" parent="AtB5Vvl12ewjgAIRtyd5-131">
          <mxGeometry x="30" width="150" height="30" as="geometry" />
        </mxCell>
        <mxCell id="AtB5Vvl12ewjgAIRtyd5-134" value="" style="shape=partialRectangle;collapsible=0;dropTarget=0;pointerEvents=0;fillColor=none;top=0;left=0;bottom=0;right=0;points=[[0,0.5],[1,0.5]];portConstraint=eastwest;" vertex="1" parent="AtB5Vvl12ewjgAIRtyd5-124">
          <mxGeometry y="120" width="180" height="30" as="geometry" />
        </mxCell>
        <mxCell id="AtB5Vvl12ewjgAIRtyd5-135" value="" style="shape=partialRectangle;connectable=0;fillColor=none;top=0;left=0;bottom=0;right=0;editable=1;overflow=hidden;" vertex="1" parent="AtB5Vvl12ewjgAIRtyd5-134">
          <mxGeometry width="30" height="30" as="geometry" />
        </mxCell>
        <mxCell id="AtB5Vvl12ewjgAIRtyd5-136" value="Row 3" style="shape=partialRectangle;connectable=0;fillColor=none;top=0;left=0;bottom=0;right=0;align=left;spacingLeft=6;overflow=hidden;" vertex="1" parent="AtB5Vvl12ewjgAIRtyd5-134">
          <mxGeometry x="30" width="150" height="30" as="geometry" />
        </mxCell>
        <mxCell id="AtB5Vvl12ewjgAIRtyd5-137" value="" style="edgeStyle=entityRelationEdgeStyle;fontSize=12;html=1;endArrow=ERmany;exitX=1;exitY=0.5;exitDx=0;exitDy=0;" edge="1" parent="1">
          <mxGeometry width="100" height="100" relative="1" as="geometry">
            <mxPoint x="30" y="396" as="sourcePoint" />
            <mxPoint x="100" y="396" as="targetPoint" />
          </mxGeometry>
        </mxCell>
        <mxCell id="AtB5Vvl12ewjgAIRtyd5-138" value="" style="edgeStyle=entityRelationEdgeStyle;fontSize=12;html=1;endArrow=ERmany;exitX=1;exitY=0.5;exitDx=0;exitDy=0;" edge="1" parent="1">
          <mxGeometry width="100" height="100" relative="1" as="geometry">
            <mxPoint x="30" y="620" as="sourcePoint" />
            <mxPoint x="100" y="620" as="targetPoint" />
          </mxGeometry>
        </mxCell>
        <mxCell id="AtB5Vvl12ewjgAIRtyd5-141" value="" style="edgeStyle=entityRelationEdgeStyle;fontSize=12;html=1;endArrow=ERmany;exitX=1;exitY=0.5;exitDx=0;exitDy=0;entryX=-0.005;entryY=0.282;entryDx=0;entryDy=0;entryPerimeter=0;" edge="1" parent="1" target="AtB5Vvl12ewjgAIRtyd5-36">
          <mxGeometry width="100" height="100" relative="1" as="geometry">
            <mxPoint x="-230" y="626" as="sourcePoint" />
            <mxPoint x="-160" y="626" as="targetPoint" />
          </mxGeometry>
        </mxCell>
        <mxCell id="AtB5Vvl12ewjgAIRtyd5-143" value="" style="fontSize=12;html=1;endArrow=ERmany;exitX=1;exitY=0.5;exitDx=0;exitDy=0;" edge="1" parent="1">
          <mxGeometry width="100" height="100" relative="1" as="geometry">
            <mxPoint x="189.5" y="477" as="sourcePoint" />
            <mxPoint x="189.5" y="525" as="targetPoint" />
          </mxGeometry>
        </mxCell>
        <mxCell id="AtB5Vvl12ewjgAIRtyd5-144" value="" style="fontSize=12;html=1;endArrow=ERmany;entryX=0.5;entryY=0;entryDx=0;entryDy=0;" edge="1" parent="1" target="AtB5Vvl12ewjgAIRtyd5-70">
          <mxGeometry width="100" height="100" relative="1" as="geometry">
            <mxPoint x="190" y="687" as="sourcePoint" />
            <mxPoint x="200" y="748" as="targetPoint" />
          </mxGeometry>
        </mxCell>
        <mxCell id="AtB5Vvl12ewjgAIRtyd5-145" value="" style="fontSize=12;html=1;endArrow=ERmany;exitX=1;exitY=0.5;exitDx=0;exitDy=0;entryX=0.5;entryY=0;entryDx=0;entryDy=0;" edge="1" parent="1">
          <mxGeometry width="100" height="100" relative="1" as="geometry">
            <mxPoint x="449.40999999999997" y="927" as="sourcePoint" />
            <mxPoint x="449.40999999999997" y="988" as="targetPoint" />
          </mxGeometry>
        </mxCell>
        <mxCell id="AtB5Vvl12ewjgAIRtyd5-146" value="" style="fontSize=12;html=1;endArrow=ERmany;entryX=0.5;entryY=1;entryDx=0;entryDy=0;exitX=0.5;exitY=0;exitDx=0;exitDy=0;" edge="1" parent="1">
          <mxGeometry width="100" height="100" relative="1" as="geometry">
            <mxPoint x="460" y="767" as="sourcePoint" />
            <mxPoint x="460" y="687" as="targetPoint" />
            <Array as="points" />
          </mxGeometry>
        </mxCell>
        <mxCell id="AtB5Vvl12ewjgAIRtyd5-147" value="" style="fontSize=12;html=1;endArrow=ERmany;entryX=0.5;entryY=1;entryDx=0;entryDy=0;exitX=0.5;exitY=0;exitDx=0;exitDy=0;" edge="1" parent="1" source="AtB5Vvl12ewjgAIRtyd5-57">
          <mxGeometry width="100" height="100" relative="1" as="geometry">
            <mxPoint x="-61" y="760" as="sourcePoint" />
            <mxPoint x="-60.59" y="710" as="targetPoint" />
            <Array as="points" />
          </mxGeometry>
        </mxCell>
        <mxCell id="AtB5Vvl12ewjgAIRtyd5-149" value="" style="fontSize=12;html=1;endArrow=ERmany;entryX=1.005;entryY=0.047;entryDx=0;entryDy=0;entryPerimeter=0;" edge="1" parent="1" target="AtB5Vvl12ewjgAIRtyd5-49">
          <mxGeometry width="100" height="100" relative="1" as="geometry">
            <mxPoint x="360" y="618" as="sourcePoint" />
            <mxPoint x="290" y="617.91" as="targetPoint" />
            <Array as="points" />
          </mxGeometry>
        </mxCell>
        <mxCell id="AtB5Vvl12ewjgAIRtyd5-150" value="" style="fontSize=12;html=1;endArrow=ERmany;entryX=1.005;entryY=0.047;entryDx=0;entryDy=0;entryPerimeter=0;" edge="1" parent="1">
          <mxGeometry width="100" height="100" relative="1" as="geometry">
            <mxPoint x="359.99999999999955" y="859.9999999999998" as="sourcePoint" />
            <mxPoint x="280.89999999999964" y="860.4099999999999" as="targetPoint" />
            <Array as="points" />
          </mxGeometry>
        </mxCell>
      </root>
    </mxGraphModel>
  </diagram>
</mxfile>
